Coordinates
version=1
nRows=38
nColumns=12
inDegrees=yes

Units are S.I. units (second, meters, Newtons, ...)
Angles are in degrees

endheader
time	SC_y	SC_z	SC_x	AC_y	AC_z	AC_x	GH_y	GH_z	GH_yy	EL_x	PS_y
       0.0              -11.99          11.82          5.324          48.39         -15.09          17.28          104.9          22.56          84.98          81.73          104.5
   0.04059              -11.99          11.82          5.324          48.39         -15.09          17.28          104.9          22.56          84.94          81.73          104.5
   0.08117              -11.99          11.83          5.325           48.4         -15.09          17.28          104.9          22.57           84.9          81.73          104.5
    0.1218               -12.0          11.83          5.325           48.4         -15.09          17.27          104.9          22.57          84.86          81.73          104.5
    0.1623               -12.0          11.83          5.326           48.4         -15.09          17.27          104.9          22.57          84.82          81.73          104.5
    0.2029              -12.01          11.83          5.327           48.4         -15.09          17.26          104.9          22.57          84.77          81.73          104.5
    0.2435              -12.01          11.84          5.327          48.41         -15.09          17.25          104.9          22.58          84.72          81.73          104.5
    0.2841              -12.02          11.84          5.328          48.41         -15.09          17.25          104.9          22.58          84.66          81.73          104.5
    0.3247              -12.02          11.84          5.329          48.41         -15.09          17.24          104.9          22.58           84.6          81.73          104.4
    0.3653              -12.03          11.85          5.329          48.42         -15.09          17.24          104.9          22.58          84.54          81.73          104.4
    0.4059              -12.04          11.85           5.33          48.42         -15.09          17.23          104.9          22.59          84.47          81.73          104.4
    0.4464              -12.04          11.85          5.331          48.43         -15.09          17.22          104.9          22.59           84.4          81.73          104.4
     0.487              -12.05          11.86          5.332          48.43         -15.09          17.21          104.9           22.6          84.32          81.73          104.4
    0.5276              -12.06          11.86          5.333          48.43         -15.09           17.2          104.9           22.6          84.23          81.73          104.4
    0.5682              -12.07          11.87          5.334          48.44         -15.09          17.19          105.0           22.6          84.14          81.73          104.4
    0.6088              -12.08          11.87          5.336          48.45         -15.09          17.18          105.0          22.61          84.04          81.73          104.3
    0.6494              -12.09          11.88          5.337          48.45         -15.09          17.17          105.0          22.61          83.93          81.73          104.3
      0.69               -12.1          11.89          5.339          48.46         -15.09          17.16          105.0          22.62          83.82          81.73          104.3
    0.7306              -12.11          11.89           5.34          48.47         -15.09          17.14          105.0          22.63          83.69          81.73          104.3
    0.7711              -12.13           11.9          5.342          48.47         -15.09          17.13          105.0          22.63          83.55          81.73          104.2
    0.8117              -12.14          11.91          5.344          48.48         -15.09          17.11          105.0          22.64          83.39          81.73          104.2
    0.8523              -12.16          11.92          5.346          48.49         -15.09          17.09          105.0          22.65          83.22          81.73          104.2
    0.8929              -12.18          11.93          5.348           48.5         -15.09          17.07          105.0          22.66          83.03          81.73          104.1
    0.9335               -12.2          11.94          5.351          48.51         -15.09          17.05          105.1          22.67          82.82          81.73          104.1
    0.9741              -12.22          11.95          5.354          48.53          -15.1          17.03          105.1          22.68          82.59          81.73          104.1
     1.015              -12.25          11.97          5.357          48.54          -15.1           17.0          105.1          22.69          82.33          81.73          104.0
     1.055              -12.28          11.98          5.361          48.56          -15.1          16.97          105.1          22.71          82.04          81.73          104.0
     1.096              -12.31           12.0          5.365          48.58          -15.1          16.93          105.2          22.73          81.71          81.72          103.9
     1.136              -12.34          12.02           5.37           48.6          -15.1          16.89          105.2          22.74          81.34          81.72          103.8
     1.177              -12.39          12.05          5.375          48.62          -15.1          16.85          105.2          22.77          80.92          81.72          103.7
     1.218              -12.43          12.07          5.381          48.65          -15.1           16.8          105.3          22.79          80.45          81.72          103.6
     1.258              -12.49           12.1          5.388          48.68         -15.11          16.74          105.3          22.82           79.9          81.72          103.5
     1.299              -12.55          12.14          5.396          48.71         -15.11          16.67          105.4          22.85          79.26          81.72          103.4
     1.339              -12.62          12.18          5.405          48.76         -15.11          16.59          105.4          22.89          78.53          81.72          103.3
      1.38              -12.71          12.23          5.416          48.81         -15.11           16.5          105.5          22.93          77.66          81.72          103.1
     1.421              -12.81          12.28          5.428          48.86         -15.12          16.39          105.6          22.98          76.65          81.72          102.9
     1.461              -12.93          12.35          5.444          48.93         -15.12          16.26          105.7          23.04          75.44          81.72          102.7
     1.502              -13.07          12.43          5.462          49.01         -15.13           16.1          105.8          23.11          73.99          81.72          102.4
